<svg width="50" height="50" viewBox="0 0 50 50" fill="none" xmlns="http://www.w3.org/2000/svg">
<path d="M45.8334 8.3313C44.2084 9.29588 40.9479 10.6105 39.0313 10.9896C38.975 11.0042 38.9292 11.023 38.875 11.0375C37.1813 9.36672 34.8604 8.3313 32.2917 8.3313C27.1146 8.3313 22.9167 12.5292 22.9167 17.7063C22.9167 17.9792 22.8938 18.4813 22.9167 18.748C15.9313 18.748 10.6146 15.0896 6.8021 10.4146C6.38752 11.4563 6.20627 13.1021 6.20627 14.648C6.20627 17.5667 8.48752 20.4334 12.0396 22.2105C11.3854 22.3792 10.6646 22.5 9.9146 22.5C8.70419 22.5 7.42294 22.1813 6.25002 21.2146C6.25002 21.25 6.25002 21.2834 6.25002 21.3209C6.25002 25.4 10.5792 28.1771 14.4292 28.95C13.6479 29.4105 12.0729 29.4563 11.3042 29.4563C10.7625 29.4563 8.84585 29.2084 8.33335 29.1125C9.40419 32.4563 13.2667 34.3355 16.9479 34.4021C14.0688 36.6605 12.0709 37.498 6.17502 37.498H4.16669C7.89169 39.8855 12.6354 41.6667 17.3896 41.6667C32.8688 41.6667 41.6667 29.8688 41.6667 18.748C41.6667 18.5688 41.6625 18.1938 41.6563 17.8167C41.6563 17.7792 41.6667 17.7438 41.6667 17.7063C41.6667 17.65 41.65 17.5959 41.65 17.5396C41.6438 17.2563 41.6375 16.9917 41.6313 16.8542C43.2771 15.6667 44.7042 14.1855 45.8334 12.498C44.3229 13.1688 42.7021 13.6188 41 13.823C42.7375 12.7813 45.2063 10.298 45.8334 8.3313Z" fill="white"/>
</svg>
