<svg width="50" height="50" viewBox="0 0 50 50" fill="none" xmlns="http://www.w3.org/2000/svg">
<path d="M11.8327 4.16675L14.9129 15.2996V20.6381H17.5822V15.2996L20.7031 4.16675H18.0135L16.8945 9.23267C16.5799 10.7118 16.3799 11.7631 16.2882 12.3902H16.2069C16.0756 11.5131 15.8756 10.454 15.6006 9.21232L14.5223 4.16675H11.8327ZM23.8159 8.37004C22.9118 8.37004 22.183 8.54673 21.6268 8.90715C21.0705 9.26548 20.6604 9.83885 20.3979 10.6243C20.1375 11.4097 20.0073 12.4494 20.0073 13.7452V15.4949C20.0073 16.7761 20.12 17.8022 20.3491 18.5751C20.5783 19.348 20.965 19.9174 21.5088 20.2841C22.0525 20.6508 22.8007 20.8334 23.7549 20.8334C24.684 20.8334 25.4227 20.6527 25.9644 20.2922C26.506 19.9318 26.8986 19.3665 27.1403 18.5873C27.382 17.8082 27.5024 16.7782 27.5024 15.4949V13.7452C27.5024 12.4514 27.3801 11.4156 27.1322 10.6365C26.8842 9.85939 26.4896 9.28602 25.9521 8.91935C25.4146 8.55269 24.7055 8.37004 23.8159 8.37004ZM28.9144 8.60604V17.5945C28.9144 18.707 29.1008 19.5252 29.48 20.0481C29.8591 20.571 30.448 20.8334 31.2459 20.8334C32.3959 20.8334 33.2629 20.2776 33.8379 19.1651H33.8949L34.1309 20.6381H36.2508V8.60604H33.5449V18.1641C33.4408 18.3871 33.2814 18.5697 33.0648 18.7135C32.8481 18.8593 32.6247 18.9291 32.3893 18.9291C32.1143 18.9291 31.9181 18.8165 31.7993 18.5873C31.6806 18.3582 31.6203 17.9733 31.6203 17.4358V8.60604H28.9144ZM23.7549 10.2336C24.134 10.2336 24.4024 10.4318 24.5524 10.8318C24.7024 11.2297 24.7762 11.8634 24.7762 12.7279V16.4755C24.7762 17.3651 24.7024 18.0085 24.5524 18.4001C24.4024 18.7918 24.136 18.9881 23.759 18.9902C23.3798 18.9902 23.1174 18.7918 22.9736 18.4001C22.8278 18.0085 22.758 17.3651 22.758 16.4755V12.7279C22.758 11.8654 22.8318 11.2318 22.9818 10.8318C23.1318 10.4339 23.3882 10.2336 23.7549 10.2336ZM10.4167 22.9167C8.125 22.9167 6.25 24.7917 6.25 27.0834V41.6667C6.25 43.9584 8.125 45.8334 10.4167 45.8334H39.5833C41.875 45.8334 43.75 43.9584 43.75 41.6667V27.0834C43.75 24.7917 41.875 22.9167 39.5833 22.9167H10.4167ZM25.1017 27.0834H27.3031V32.4342H27.3193C27.5173 32.0467 27.8011 31.7358 28.1657 31.4983C28.5303 31.2608 28.9249 31.1443 29.3457 31.1443C29.8874 31.1443 30.311 31.2881 30.6193 31.5756C30.9276 31.8631 31.1532 32.3276 31.2907 32.9672C31.4282 33.6089 31.4941 34.499 31.4941 35.6365V37.2437H31.4982C31.4982 38.7583 31.3135 39.8678 30.9489 40.5803C30.5843 41.2928 30.0169 41.6505 29.244 41.6505C28.8127 41.6505 28.4222 41.5513 28.068 41.3534C27.7139 41.1555 27.4476 40.8834 27.2705 40.5396H27.2217L26.9897 41.4999H25.1017V27.0834ZM11.4299 27.5961H18.2048V29.4394H15.9342V41.4999H13.7004V29.4394H11.4299V27.5961ZM35.6201 31.1484C36.4035 31.1484 37.0059 31.2922 37.4268 31.5797C37.8455 31.8672 38.1409 32.3162 38.3138 32.9224C38.4846 33.5308 38.5701 34.3703 38.5701 35.4412V37.1827H34.7453V37.6995C34.7453 38.3515 34.7627 38.8393 34.8022 39.1643C34.8418 39.4893 34.9215 39.7285 35.0423 39.8764C35.1632 40.0264 35.3497 40.1002 35.6038 40.1002C35.9455 40.1002 36.1807 39.966 36.3078 39.7014C36.4349 39.4368 36.5049 38.9977 36.5153 38.379L38.4888 38.4929C38.4992 38.5804 38.505 38.705 38.505 38.8591C38.505 39.7987 38.2465 40.5003 37.7319 40.9628C37.2174 41.4274 36.4946 41.6586 35.555 41.6586C34.4279 41.6586 33.6369 41.3028 33.1828 40.5966C32.7286 39.8903 32.5033 38.7982 32.5033 37.317V35.5429C32.5033 34.0179 32.7384 32.9043 33.2072 32.2022C33.6759 31.5001 34.4826 31.1484 35.6201 31.1484ZM17.5212 31.3437H19.812V38.8022C19.812 39.2542 19.8626 39.5789 19.9626 39.7706C20.0626 39.9643 20.2257 40.0595 20.459 40.0595C20.6569 40.0595 20.8515 39.9993 21.0327 39.8764C21.216 39.7556 21.346 39.6 21.4355 39.4125V31.3437H23.7264V41.4999H23.7223H21.932L21.7367 40.2548H21.6838C21.1963 41.1965 20.4675 41.6667 19.4946 41.6667C18.8196 41.6667 18.3262 41.4452 18.0054 41.0035C17.6845 40.5618 17.5212 39.8699 17.5212 38.9324V31.3437ZM35.5713 32.6946C35.3275 32.6946 35.1468 32.7686 35.0301 32.9102C34.9134 33.054 34.8357 33.2892 34.7982 33.6142C34.7586 33.9392 34.7412 34.4328 34.7412 35.0953V35.8236H36.4136V35.0953C36.4136 34.4432 36.3922 33.9517 36.3485 33.6142C36.3068 33.2767 36.2251 33.0396 36.1084 32.9021C35.9917 32.7646 35.815 32.6946 35.5713 32.6946ZM28.3162 32.7678C28.0954 32.7678 27.8934 32.8552 27.7059 33.0323C27.5184 33.2094 27.3842 33.4368 27.3071 33.7118V39.4776C27.4071 39.6547 27.5373 39.7868 27.6978 39.8764C27.8582 39.9639 28.029 40.0107 28.2186 40.0107C28.4623 40.0107 28.6526 39.9233 28.7964 39.7462C28.9401 39.5691 29.0452 39.2718 29.1056 38.851C29.166 38.4322 29.1951 37.849 29.1951 37.1095V35.8033C29.1951 35.0075 29.1719 34.3954 29.1219 33.9641C29.0719 33.5329 28.9824 33.2217 28.8574 33.0404C28.7303 32.8592 28.5496 32.7678 28.3162 32.7678Z" fill="white"/>
</svg>
